<?xml version="1.0" encoding="utf-8"?>
<!-- Generator: Adobe Illustrator 25.4.1, SVG Export Plug-In . SVG Version: 6.00 Build 0)  -->
<svg version="1.1" id="Capa_1" xmlns="http://www.w3.org/2000/svg" xmlns:xlink="http://www.w3.org/1999/xlink" x="0px" y="0px"
	 viewBox="0 0 222.4 222.4" style="enable-background:new 0 0 222.4 222.4;" xml:space="preserve">
<style type="text/css">
	.st0{fill:#009640;}
</style>
<g>
	<path class="st0" d="M107.6,99.8l3.5,3.4l3.5-3.4c3.6-3.6,35.8-35.1,42.2-45.7c4.2-6.9,6.1-13.8,6.1-22.3
		c0-20.9-15.7-31.8-31.2-31.8c-8.5,0-15.6,2.9-20.6,8.4C107.3,4.2,100.9,0,90.6,0C72.2,0,59.4,13.1,59.4,31.8
		c0,8.5,1.9,15.4,6.1,22.3C72.1,64.7,104,96.3,107.6,99.8z"/>
	<path class="st0" d="M114.8,122.5l-3.5-3.4l-3.5,3.4c-3.6,3.6-35.8,35.1-42.2,45.7c-4.2,6.9-6.1,13.8-6.1,22.3
		c0,20.9,15.7,31.8,31.2,31.8c8.5,0,15.6-2.9,20.6-8.4c3.8,4.2,10.2,8.4,20.6,8.4c18.3,0,31.1-13.1,31.1-31.8
		c0-8.5-1.9-15.4-6.1-22.3C150.3,157.7,118.4,126.1,114.8,122.5z"/>
	<path class="st0" d="M214,111.1c4.2-3.8,8.4-10.2,8.4-20.6c0-18.3-13.1-31.1-31.8-31.1c-8.6,0-15.4,1.9-22.3,6.1
		c-10.6,6.5-42.1,38.4-45.7,42l-3.4,3.5l3.4,3.5c3.6,3.6,35.1,35.8,45.7,42.2c6.9,4.2,13.8,6.1,22.3,6.1c20.9,0,31.8-15.7,31.8-31.2
		C222.4,123.2,219.4,116.1,214,111.1z"/>
	<path class="st0" d="M99.8,114.8l3.4-3.5l-3.4-3.5c-3.6-3.6-35.1-35.8-45.7-42.2c-6.9-4.2-13.8-6.1-22.3-6.1
		C10.9,59.4,0,75.1,0,90.6c0,8.5,2.9,15.6,8.4,20.6C4.2,115.1,0,121.5,0,131.8c0,18.3,13.1,31.1,31.8,31.1c8.6,0,15.4-1.9,22.3-6.1
		C64.7,150.3,96.3,118.4,99.8,114.8z"/>
</g>
</svg>
